<svg width="5577px" height="1422px" viewBox="0 0 5577 1422" version="1.1" xmlns="http://www.w3.org/2000/svg" xmlns:xlink="http://www.w3.org/1999/xlink">
    <g id="Page-1" stroke="none" stroke-width="1" fill="none" fill-rule="evenodd">
        <g id="Group">
            <path d="M3231.24939,306.697266 C3293.78585,240.811849 3348.22595,138.770182 3394.5697,0.572265625 C3472.95512,142.025391 3492.55147,301.89388 3453.35876,480.177734 C3585.87179,514.979818 3682.41606,529.044922 3742.99158,522.373047 C3694.95251,597.412109 3632.72465,658.378255 3556.30798,705.271484 C3714.64913,740.906901 3852.55798,749.815755 3970.03455,731.998047 C3920.58403,789.193359 3851.58793,839.805339 3763.04626,883.833984 C3844.51241,886.086589 3943.81189,863.785807 4060.9447,816.931641 C3982.5072,960.348307 3872.82621,1062.38086 3731.90173,1123.0293 C3794.12048,1139.91211 3890.1335,1148.35352 4019.9408,1148.35352 C3835.30798,1251.44987 3569.43429,1319.60352 3222.3197,1352.81445 C3224.6921,1391.06966 3220.89653,1414.15299 3210.93298,1422.06445 C3175.49548,1378.05143 3138.77673,1354.31055 3100.77673,1350.8418 C3043.77673,1345.63867 2535.5033,1342.77148 2442.99939,1076.2793 C2297.87179,1046.01107 2183.91866,1000.29883 2101.14001,939.142578 C2104.52804,778.44987 2201.2546,660.784505 2391.3197,586.146484 C2357.6322,678.774089 2350.60876,732.857422 2370.24939,748.396484 C2413.6322,741.495443 2453.79887,727.120443 2490.74939,705.271484 C2427.08272,618.123047 2411.16606,507.160807 2442.99939,372.384766 C2458.54626,382.913411 2466.3197,388.177734 2466.3197,388.177734 C2493.28324,311.542318 2531.821,264.163411 2581.93298,246.041016 C2617.93038,324.663411 2650.85486,380.499349 2680.70642,413.548828 C2725.48376,463.123047 2819.07751,553.951172 2859.68298,651.173828 C3003.59444,527.205078 3072.40694,359.807943 3066.12048,148.982422 C3064.4137,91.7431149 3071.61532,44.6968909 3087.72534,7.84375 C3169.86377,114.157552 3217.70512,213.775391 3231.24939,306.697266 Z" id="Outer-Eagle" fill="#FFFFFF" transform="translate(3081.042358, 711.318359) rotate(180.000000) translate(-3081.042358, -711.318359) "></path>
            <path d="M2967.58652,55.8044922 C2963.63671,78.5367408 2965.98502,97.4424472 2974.63146,112.521611 C2715.18973,119.501002 2483.1392,166.314879 2278.47987,252.963241 C2458.76952,260.957472 2558.71634,271.848731 2578.32033,285.637019 C2404.36599,340.533078 2271.48154,428.146215 2179.66696,548.47643 C2374.42958,496.281197 2535.29384,475.219891 2662.25975,485.292513 C2495.26044,534.884344 2374.06965,592.201134 2298.68736,657.242884 C2460.50692,653.567812 2592.77842,669.778184 2695.50184,705.874001 C2613.0725,750.248203 2548.94952,804.485293 2503.13289,868.585272 C2632.80775,884.952606 2718.61853,905.463192 2760.56524,930.11703 C2712.62692,1061.25867 2714.90151,1183.5252 2767.38902,1296.91661 C2860.94912,1086.02211 2997.67914,916.851046 3177.57909,789.403423 C3069.85183,896.259273 2995.16775,991.80169 2953.52685,1076.03068 C2970.36778,1124.65367 3006.70986,1169.68955 3062.5531,1211.13831 C3033.71542,1032.88105 3108.85009,875.893471 3287.95711,740.175581 C3278.668,719.318944 3272.83301,697.512207 3270.45215,674.755371 C3033.46746,797.943098 2876.53976,952.190469 2799.66904,1137.49748 C2778.14903,1009.42201 2815.4613,903.559353 2911.60585,819.909503 C2787.50314,808.784154 2690.17461,814.115445 2619.62025,835.903376 C2691.52773,759.257273 2792.0618,710.297348 2921.22248,689.023603 C2774.59303,634.306155 2636.05659,610.281518 2505.61316,616.949691 C2706.62178,524.020147 2862.08303,466.945565 2971.99693,445.725944 C2768.10347,417.139941 2578.13902,418.8787 2402.10358,450.94222 C2569.08394,350.538044 2693.09329,292.440504 2774.13162,276.649599 C2676.19012,245.609037 2589.70007,228.371647 2514.66147,224.937429 C3066.24983,125.972973 3442.51042,171.788247 3643.44326,362.383253 C3666.60326,365.213979 3678.18325,366.629342 3678.18325,366.629342 C3586.79085,207.183148 3380.63227,123.03535 3059.70749,114.185948 C3014.15979,97.8963578 2984.71432,79.6416667 2971.37109,59.421875 C2969.24067,56.1935174 2967.97915,54.9877231 2967.58652,55.8044922 Z" id="Path-2" fill="#000000"></path>
            <path d="M3430.37109,670.303026 C3577.74609,803.001909 3663.27474,892.260275 3686.95703,938.078125 C3691.52734,853.273176 3635.13802,765.47603 3517.78906,674.686687 C3549.16732,724.766269 3560.79167,749.211006 3552.66211,748.020898 C3540.46777,746.235736 3525.29736,727.486655 3480.86572,699.405513 C3451.24463,680.684753 3434.41309,670.983923 3430.37109,670.303026 Z" id="Path-3" fill="#000000"></path>
            <path d="M3572.75,868.640625 C3670.08073,936.510417 3673.08854,1021.20182 3581.77344,1122.71484 C3579.88441,1072.79843 3520.77322,990.351941 3404.43989,875.375379 C3340.59455,793.39596 3312.27995,703.683594 3319.49609,606.238281 C3391.98047,784.376302 3485.11458,900.886719 3598.89844,955.769531 L3573.47314,870.420654 L3572.75,868.640625 Z" id="Path-5" fill="#000000"></path>
            <path d="M3824.64625,776.080452 C3871.47749,684.115667 3868.10424,606.551055 3814.52651,543.386615 C3828.82092,576.2421 3831.45394,602.499937 3822.42558,622.160126 C3663.94121,534.170022 3501.08791,524.935325 3333.86568,594.456036 C3492.43453,512.118186 3604.54628,446.576179 3670.20093,397.830015 C3769.70499,389.333675 3877.51431,424.49841 3993.62891,503.324219 C4015.37186,518.084688 4008.19727,573.052734 3993.62891,603.261719 C3979.06055,633.470703 3957.21172,656.295265 3945.87891,669.966797 C3932.19028,686.4803 3891.7794,721.851518 3824.64625,776.080452 Z" id="Path-4" fill="#000000"></path>
            <path d="M3502.42969,291.757662 C3631.54427,396.911379 3561.15104,470.544242 3291.25,512.65625 C3362.91667,485.664044 3405.78255,463.88929 3419.84766,447.331987 C3328.25391,464.927702 3268.01042,445.715775 3239.11719,389.696205 C3230.23763,370.319239 3202.64518,356.302302 3156.33984,347.645395 C3171.38672,332.703979 3189.86849,329.276893 3211.78516,337.364138 C3244.66016,349.495006 3098.15918,218.112104 3068.77148,218.111902 C3158.29362,218.628313 3263.33789,258.423655 3383.9043,337.497927 C3383.78451,319.735545 3387.38965,306.238791 3394.71973,297.007665 C3411.236,365.38141 3445.98828,400.502853 3498.97656,402.371995 C3522.48137,403.201118 3532.14009,384.417543 3535.24512,370.000879 C3537.84166,357.945093 3526.90318,331.864021 3502.42969,291.757662 Z" id="Path-6" fill="#000000"></path>
            <path d="M3263.75,303.96875 C3228.18229,412.877604 3288.01563,446.068359 3443.25,403.541016 C3406.90755,385.098307 3376.64974,365.700521 3352.47656,345.347656 C3328.30339,324.994792 3298.72786,311.201823 3263.75,303.96875 Z" id="Path-7" fill-opacity="0.2" fill="#000000"></path>
            <path d="M3691.46191,435.250977 C3793.10449,463.688477 3765.00651,476.848958 3607.16797,474.732422 C3612.24089,467.550781 3624.83301,461.058268 3644.94434,455.254883 C3665.05566,449.451497 3680.56152,442.783529 3691.46191,435.250977 Z" id="Path-8" fill="#000000"></path>
            <path d="M3308.47266,318.878906 C3284.56217,398.652669 3322.81136,423.615072 3423.22021,393.766113 C3424.36759,393.425027 3407.04808,385.522878 3391.42578,374.899414 C3368.34102,359.201332 3345.28743,340.081085 3338.22852,335.140137 C3331.48884,330.422642 3321.57022,325.002232 3308.47266,318.878906 Z" id="Path-9" fill="#FFFFFF"></path>
            <path d="M3372.42212,361.379639 C3349.32951,375.245036 3342.44792,390.210612 3351.77734,406.276367 C3355.6579,406.13032 3360.84776,405.864614 3367.34692,405.479248 C3369.74814,405.336868 3384.02555,403.461708 3397.2793,400.790527 C3410.57216,398.111463 3422.58696,394.566203 3423.26782,393.700195 C3424.38756,392.275963 3412.39412,387.325721 3396.16455,377.893066 C3391.22391,375.021559 3383.30977,369.517083 3372.42212,361.379639 Z" id="Path-10" fill="#000000"></path>
            <path d="M16,391 L85,391 L64,667.5 L71,667.5 L184,396 L260,396 L243.5,667.5 L250.5,667.5 L362.5,391 L431.5,391 L286,731 L186,731 L202.5,484 L103.5,731 L0.5,731 L16,391 Z M394,731 L472.5,391 L541.5,391 L463,731 L394,731 Z M528,731 L606.5,391 L716,391 L734,657.5 L740,657.5 L800.5,391 L867,391 L788.5,731 L684.5,731 L662.5,459.5 L656.5,459.5 L593,731 L528,731 Z M984.5,737 C909.499625,737 872,701.33369 872,630 C872,575.99973 881.33324,529.0002 900,489 C920.333435,444.99978 949.333145,414.66675 987,398 C1007.0001,389.33329 1027.16656,385 1047.5,385 C1067.83344,385 1086.66658,386.66665 1104,390 C1121.33342,393.33335 1134.66662,396.66665 1144,400 L1157.5,405 L1141.5,455 C1108.49984,448.3333 1077.33348,445 1048,445 C1029.99991,445 1013.91674,450.916607 999.75,462.75 C985.583263,474.583392 974.666705,489.999905 967,509 C950.99992,547.333525 943,587.83312 943,630.5 C943,661.500155 959.6665,677 993,677 L1024.5,674.5 L1042,599 L1010,599 L1023.5,542 L1124,542 L1081.5,724 C1058.83322,732.66671 1026.50021,737 984.5,737 Z M1137.5,731 L1216,391 L1323,391 L1323.5,638.5 L1436.5,391 L1545.5,391 L1467,731 L1398,731 L1463,451 L1460,451 L1338.5,716 L1273.5,716 L1273,451 L1270.5,451 L1206.5,731 L1137.5,731 Z M1506,731 L1659,391 L1778,391 L1767.5,731 L1698.5,731 L1700.5,672 L1601.5,672 L1575,731 L1506,731 Z M1699.5,451 L1627.5,612 L1703,612 L1710,451 L1699.5,451 Z M1807.5,731 L1886,391 L1995.5,391 L2013.5,657.5 L2019.5,657.5 L2080,391 L2146.5,391 L2068,731 L1964,731 L1942,459.5 L1936,459.5 L1872.5,731 L1807.5,731 Z" id="WINGMAN" fill="#FFFFFF"></path>
            <path d="M4093,451 L4107,391 L4326,391 L4312,451 L4236.5,451 L4172,731 L4103,731 L4167.5,451 L4093,451 Z M4284.5,731 L4363,391 L4432,391 L4353.5,731 L4284.5,731 Z M4418.5,731 L4497,391 L4604,391 L4604.5,638.5 L4717.5,391 L4826.5,391 L4748,731 L4679,731 L4744,451 L4741,451 L4619.5,716 L4554.5,716 L4554,451 L4551.5,451 L4487.5,731 L4418.5,731 Z M4813,731 L4891.5,391 L4960.5,391 L4882,731 L4813,731 Z M4947,731 L5025.5,391 L5135,391 L5153,657.5 L5159,657.5 L5219.5,391 L5286,391 L5207.5,731 L5103.5,731 L5081.5,459.5 L5075.5,459.5 L5012,731 L4947,731 Z M5403.5,737 C5328.49963,737 5291,701.33369 5291,630 C5291,575.99973 5300.33324,529.0002 5319,489 C5339.33344,444.99978 5368.33315,414.66675 5406,398 C5426.0001,389.33329 5446.16657,385 5466.5,385 C5486.83344,385 5505.66658,386.66665 5523,390 C5540.33342,393.33335 5553.66662,396.66665 5563,400 L5576.5,405 L5560.5,455 C5527.49984,448.3333 5496.33348,445 5467,445 C5448.99991,445 5432.91674,450.916607 5418.75,462.75 C5404.58326,474.583392 5393.66671,489.999905 5386,509 C5369.99992,547.333525 5362,587.83312 5362,630.5 C5362,661.500155 5378.6665,677 5412,677 L5443.5,674.5 L5461,599 L5429,599 L5442.5,542 L5543,542 L5500.5,724 C5477.83322,732.66671 5445.50021,737 5403.5,737 Z" id="TIMING" fill="#FFFFFF"></path>
        </g>
    </g>
</svg>