<?xml version="1.0" encoding="UTF-8"?>
<svg width="433px" height="75px" viewBox="0 0 433 75" version="1.1" xmlns="http://www.w3.org/2000/svg" xmlns:xlink="http://www.w3.org/1999/xlink">
    <g id="Page-1" stroke="none" stroke-width="1" fill="none" fill-rule="evenodd">
        <g id="Group" transform="translate(0.000000, -19.000000)" fill="#ffffff">
            <path d="M0,36.528 L5.616,36.528 L10.32,64.8 L11.328,64.8 L17.568,36.624 L23.808,36.624 L30.048,64.8 L31.104,64.8 L35.808,36.528 L41.424,36.528 L34.944,69.408 L26.352,69.408 L20.688,43.056 L15.072,69.408 L6.432,69.408 L0,36.528 Z M46.368,69.408 L46.368,36.528 L51.696,36.528 L51.696,69.408 L46.368,69.408 Z M59.28,69.408 L59.28,36.528 L68.592,36.528 L78.576,64.704 L79.296,64.704 L79.296,36.528 L84.624,36.528 L84.624,69.408 L75.504,69.408 L65.28,41.184 L64.608,41.184 L64.608,69.408 L59.28,69.408 Z M105.6,56.832 L105.6,52.128 L114.96,52.128 L114.96,68.832 C114.095996,69.0560011 112.344013,69.2959987 109.704,69.552 C107.063987,69.8080013 105.152006,69.936 103.968,69.936 C98.975975,69.936 95.5360094,68.5600138 93.648,65.808 C91.7599906,63.0559862 90.816,58.7440294 90.816,52.872 C90.816,46.9999706 91.7839903,42.7200134 93.72,40.032 C95.6560097,37.3439866 99.0079762,36 103.776,36 C106.592014,36 109.759982,36.3199968 113.28,36.96 L114.96,37.296 L114.768,41.52 C110.895981,41.0079974 107.424015,40.752 104.352,40.752 C101.279985,40.752 99.1760057,41.6159914 98.04,43.344 C96.9039943,45.0720086 96.336,48.2719766 96.336,52.944 C96.336,57.6160234 96.8719946,60.8399911 97.944,62.616 C99.0160054,64.3920089 101.183984,65.28 104.448,65.28 C106.784012,65.28 108.527994,65.1360014 109.68,64.848 L109.68,56.832 L105.6,56.832 Z M121.632,69.408 L121.632,36.528 L130.896,36.528 L138.24,62.208 L145.584,36.528 L154.896,36.528 L154.896,69.408 L149.52,69.408 L149.52,42.432 L148.8,42.432 L141.024,68.064 L135.456,68.064 L127.68,42.432 L126.96,42.432 L126.96,69.408 L121.632,69.408 Z M159.6,69.408 L167.712,36.528 L178.32,36.528 L186.48,69.408 L181.104,69.408 L179.328,62.352 L166.704,62.352 L164.928,69.408 L159.6,69.408 Z M171.84,40.992 L167.76,57.648 L178.272,57.648 L174.24,40.992 L171.84,40.992 Z M191.184,69.408 L191.184,36.528 L200.496,36.528 L210.48,64.704 L211.2,64.704 L211.2,36.528 L216.528,36.528 L216.528,69.408 L207.408,69.408 L197.184,41.184 L196.512,41.184 L196.512,69.408 L191.184,69.408 Z" id="WINGMAN"></path>
            <path d="M281.624,41.28 L281.624,36.528 L305.624,36.528 L305.624,41.28 L296.36,41.28 L296.36,69.4080003 L290.984,69.4080003 L290.984,41.28 L281.624,41.28 Z M310.04,69.4080003 L310.04,36.528 L315.368,36.528 L315.368,69.4080003 L310.04,69.4080003 Z M322.952,69.4080003 L322.952,36.528 L332.216,36.528 L339.56,62.2080002 L346.904001,36.528 L356.216001,36.528 L356.216001,69.4080003 L350.840001,69.4080003 L350.840001,42.4320001 L350.120001,42.4320001 L342.344,68.0640003 L336.776,68.0640003 L329,42.4320001 L328.28,42.4320001 L328.28,69.4080003 L322.952,69.4080003 Z M363.752001,69.4080003 L363.752001,36.528 L369.080001,36.528 L369.080001,69.4080003 L363.752001,69.4080003 Z M376.664001,69.4080003 L376.664001,36.528 L385.976001,36.528 L395.960001,64.7040002 L396.680001,64.7040002 L396.680001,36.528 L402.008001,36.528 L402.008001,69.4080003 L392.888001,69.4080003 L382.664001,41.184 L381.992001,41.184 L381.992001,69.4080003 L376.664001,69.4080003 Z M422.984001,56.8320002 L422.984001,52.1280001 L432.344001,52.1280001 L432.344001,68.8320003 C431.479997,69.0560014 429.728014,69.295999 427.088001,69.5520003 C424.447988,69.8080016 422.536007,69.9360003 421.352001,69.9360003 C416.359976,69.9360003 412.920011,68.560014 411.032001,65.8080002 C409.143992,63.0559865 408.200001,58.7440295 408.200001,52.8720001 C408.200001,46.9999707 409.167991,42.7200135 411.104001,40.032 C413.040011,37.3439866 416.391977,36 421.160001,36 C423.976015,36 427.143984,36.3199968 430.664001,36.96 L432.344001,37.296 L432.152001,41.52 C428.279982,41.0079975 424.808017,40.752 421.736001,40.752 C418.663986,40.752 416.560007,41.6159914 415.424001,43.3440001 C414.287995,45.0720087 413.720001,48.2719767 413.720001,52.9440001 C413.720001,57.6160235 414.255996,60.8399913 415.328001,62.6160002 C416.400006,64.3920091 418.567985,65.2800002 421.832001,65.2800002 C424.168013,65.2800002 425.911995,65.1360017 427.064001,64.8480002 L427.064001,56.8320002 L422.984001,56.8320002 Z" id="TIMING"></path>
            <path d="M288.49239,43.2614642 C292.14864,44.0739629 294.911141,44.7645851 296.77989,45.3333344 C298.323641,45.7395828 299.298641,46.1052069 299.70489,46.4302068 C300.029891,46.5927058 300.19239,46.8364552 300.19239,47.161455 C300.19239,47.4864549 300.029891,47.7302043 299.70489,47.8927033 C299.298641,48.2177032 298.323641,48.5833273 296.77989,48.9895757 C294.911141,49.558325 292.14864,50.2489471 288.49239,51.0614458 L272.892389,53.0114412 L267.042389,54.9614366 L264.117389,54.9614366 L249.858014,72.9988941 L254.733014,72.9988941 C255.383013,72.9988941 255.972077,73.0598314 256.500201,73.1817061 C257.028326,73.3035808 257.292389,73.4863929 257.292389,73.7301423 C257.292389,73.9738918 257.028326,74.1567038 256.500201,74.2785785 C255.972077,74.4004533 255.383013,74.4613906 254.733014,74.4613906 L240.717389,74.4613906 L240.717389,72.9988941 L242.667389,72.9988941 L242.667389,53.0114412 L236.817389,53.0114412 L228.651763,62.7614182 L224.508013,62.7614182 L223.167388,61.4207964 L223.167388,53.0114412 L224.142388,53.0114412 L224.142388,51.0614458 L229.992388,51.0614458 L229.992388,50.6958217 L222.192388,49.720824 L222.192388,44.6020861 L229.992388,43.6270884 L229.992388,43.2614642 L224.142388,43.2614642 L224.142388,41.3114688 L223.167388,41.3114688 L223.167388,32.9021137 L224.508013,31.5614918 L228.651763,31.5614918 L236.817389,41.3114688 L242.667389,41.3114688 L242.667389,21.324016 L240.717389,21.324016 L240.717389,19.8615195 L254.733014,19.8615195 C255.383013,19.8615195 255.972077,19.9224568 256.500201,20.0443315 C257.028326,20.1662062 257.292389,20.3490183 257.292389,20.5927677 C257.292389,20.8365172 257.028326,21.0193292 256.500201,21.1412039 C255.972077,21.2630787 255.383013,21.324016 254.733014,21.324016 L249.858014,21.324016 L264.117389,39.3614734 L267.042389,39.3614734 L272.892389,41.3114688 L288.49239,43.2614642 Z" id="fighter-jet" transform="translate(261.192389, 47.161455) rotate(-45.000000) translate(-261.192389, -47.161455) "></path>
            <polygon id="Triangle" transform="translate(223.947962, 84.552038) rotate(-135.000000) translate(-223.947962, -84.552038) " points="223.947962 71.5520382 224.947962 97.5520382 222.947962 97.5520382"></polygon>
            <polygon id="Triangle" transform="translate(221.826641, 76.773864) rotate(-135.000000) translate(-221.826641, -76.773864) " points="221.826641 66.7738636 222.826641 86.7738636 220.826641 86.7738636"></polygon>
            <polygon id="Triangle" transform="translate(231.726136, 86.673359) rotate(-135.000000) translate(-231.726136, -86.673359) " points="231.726136 76.6733585 232.726136 96.6733585 230.726136 96.6733585"></polygon>
        </g>
    </g>
</svg>