<?xml version="1.0" encoding="UTF-8"?>
<svg width="75px" height="75px" viewBox="0 0 75 75" version="1.1" xmlns="http://www.w3.org/2000/svg" xmlns:xlink="http://www.w3.org/1999/xlink">
    <g id="Page-1" stroke="none" stroke-width="1" fill="none" fill-rule="evenodd">
        <g id="logo" transform="translate(0.000000, -19.000000)" fill="#FFFFFF" fill-rule="nonzero">
            <path d="M74.49239,43.2614642 C78.14864,44.0739629 80.911141,44.7645851 82.77989,45.3333344 C84.323641,45.7395828 85.298641,46.1052069 85.70489,46.4302068 C86.029891,46.5927058 86.19239,46.8364552 86.19239,47.161455 C86.19239,47.4864549 86.029891,47.7302043 85.70489,47.8927033 C85.298641,48.2177032 84.323641,48.5833273 82.77989,48.9895757 C80.911141,49.558325 78.14864,50.2489471 74.49239,51.0614458 L58.892389,53.0114412 L53.042389,54.9614366 L50.117389,54.9614366 L35.858014,72.9988941 L40.733014,72.9988941 C41.383013,72.9988941 41.972077,73.0598314 42.500201,73.1817061 C43.028326,73.3035808 43.292389,73.4863929 43.292389,73.7301423 C43.292389,73.9738918 43.028326,74.1567038 42.500201,74.2785785 C41.972077,74.4004533 41.383013,74.4613906 40.733014,74.4613906 L26.717389,74.4613906 L26.717389,72.9988941 L28.667389,72.9988941 L28.667389,53.0114412 L22.817389,53.0114412 L14.651763,62.7614182 L10.508013,62.7614182 L9.16738804,61.4207964 L9.16738804,53.0114412 L10.142388,53.0114412 L10.142388,51.0614458 L15.992388,51.0614458 L15.992388,50.6958217 L8.19238804,49.720824 L8.19238804,44.6020861 L15.992388,43.6270884 L15.992388,43.2614642 L10.142388,43.2614642 L10.142388,41.3114688 L9.16738804,41.3114688 L9.16738804,32.9021137 L10.508013,31.5614918 L14.651763,31.5614918 L22.817389,41.3114688 L28.667389,41.3114688 L28.667389,21.324016 L26.717389,21.324016 L26.717389,19.8615195 L40.733014,19.8615195 C41.383013,19.8615195 41.972077,19.9224568 42.500201,20.0443315 C43.028326,20.1662062 43.292389,20.3490183 43.292389,20.5927677 C43.292389,20.8365172 43.028326,21.0193292 42.500201,21.1412039 C41.972077,21.2630787 41.383013,21.324016 40.733014,21.324016 L35.858014,21.324016 L50.117389,39.3614734 L53.042389,39.3614734 L58.892389,41.3114688 L74.49239,43.2614642 Z" id="fighter-jet" transform="translate(47.192389, 47.161455) rotate(-45.000000) translate(-47.192389, -47.161455) "></path>
            <polygon id="Triangle" transform="translate(9.947962, 84.552038) rotate(-135.000000) translate(-9.947962, -84.552038) " points="9.94796214 71.5520379 10.9479621 97.5520379 8.94796214 97.5520379"></polygon>
            <polygon id="Triangle" transform="translate(7.826641, 76.773864) rotate(-135.000000) translate(-7.826641, -76.773864) " points="7.82664072 66.7738643 8.82664072 86.7738643 6.82664072 86.7738643"></polygon>
            <polygon id="Triangle" transform="translate(17.726136, 86.673359) rotate(-135.000000) translate(-17.726136, -86.673359) " points="17.7261356 76.6733594 18.7261356 96.6733594 16.7261356 96.6733594"></polygon>
        </g>
    </g>
</svg>