<svg width="50px" height="37px" viewBox="0 0 50 37" version="1.1" xmlns="http://www.w3.org/2000/svg" xmlns:xlink="http://www.w3.org/1999/xlink">
    <g id="Page-1" stroke="none" stroke-width="1" fill="none" fill-rule="evenodd">
        <g id="Group">
            <path d="M28.8320815,7.82368975 C30.4273544,6.1429866 31.8160935,3.53995609 32.9982988,0.0145982022 C34.9978705,3.62299478 35.4977635,7.70115785 34.4979776,12.2490874 C37.8783167,13.1368707 40.3411115,13.4956643 41.8863619,13.3254682 C40.6609101,15.2396761 39.0735092,16.7948912 37.1241593,17.9911134 C41.1633606,18.9001546 44.6813447,19.1274149 47.6781114,18.6728943 C46.4166541,20.1319173 44.6565991,21.4230029 42.3979467,22.5461511 C44.4761062,22.6036138 47.009185,22.0347324 49.9971828,20.8395066 C47.9962825,24.4979921 45.1983768,27.1007902 41.6034657,28.6479006 C43.1906341,29.0785725 45.6398769,29.2939085 48.9511943,29.2939085 C44.241306,31.9238435 37.4590045,33.662408 28.6042898,34.509602 C28.6648084,35.4854727 28.5679852,36.0743167 28.3138204,36.2761339 C27.409828,35.1533844 26.4731515,34.5477666 25.503791,34.4592805 C24.0497503,34.3265515 11.0839559,34.253411 8.7242288,27.4553322 C5.02209815,26.6832052 2.11521245,25.5171094 0.00357170178,23.9570449 C0.0899983734,19.8578564 2.55744331,16.8562734 7.40590651,14.9522958 C6.54655569,17.3151784 6.3673914,18.6948165 6.86841366,19.09121 C7.97508693,18.915168 8.99971797,18.5484691 9.94230678,17.9911134 C8.31820281,15.7680015 7.91217681,12.9374117 8.7242288,9.49934414 C9.1208216,9.76792449 9.319118,9.90221466 9.319118,9.90221466 C10.0069441,7.94728454 10.9900226,6.73867297 12.2683534,6.27637996 C13.1866285,8.2819969 14.0265151,9.70634299 14.7880131,10.5494182 C15.9302601,11.8140311 18.3177886,14.1310099 19.3536133,16.61111 C23.0247207,13.4487308 24.7800922,9.17851584 24.6197279,3.80046507 C24.5761889,2.34031975 24.7598985,1.14019473 25.1708567,0.200090034 C27.2661659,2.91210053 28.4865741,5.45330043 28.8320815,7.82368975 Z" id="Outer-Eagle" fill="#333333" transform="translate(25.000377, 18.145366) rotate(180.000000) translate(-25.000377, -18.145366) "></path>
            <path d="M22.1061772,1.42354394 C22.0054195,2.00343193 22.0653237,2.48570679 22.2858898,2.87036852 C15.6676646,3.04840919 9.74817475,4.24260714 4.52742034,6.45296238 C9.12651665,6.65689109 11.6761087,6.93472152 12.1761966,7.28645366 C7.73871069,8.68682395 4.34889642,10.9217901 2.00675381,13.9913521 C6.97504807,12.6598785 11.0786128,12.1226154 14.317448,12.3795628 C10.0573815,13.6446249 6.96586645,15.1067468 5.04290296,16.7659285 C9.17083697,16.6721792 12.5450149,17.0856975 15.1654366,18.0064833 C13.0627066,19.1384464 11.4269623,20.5220067 10.2582036,22.1571642 C13.5661427,22.5746865 15.7551316,23.097901 16.8251705,23.7268078 C15.6022886,27.0721637 15.6603124,30.19112 16.9992417,33.0836768 C19.3859118,27.7038663 22.8738244,23.3883993 27.4629797,20.1372759 C24.7149127,22.8631138 22.8097602,25.3003518 21.7475222,27.4489899 C22.1771255,28.6893376 23.1041935,29.8381798 24.5287259,30.8955163 C23.7930914,26.3482651 25.7097382,22.3435926 30.2786663,18.881499 C30.0417058,18.3494569 29.8928582,17.7931782 29.8321237,17.212663 C23.7867662,20.3551187 19.7836211,24.2898899 17.8226884,29.0169767 C17.273724,25.7498372 18.2255408,23.0493351 20.6781391,20.9154704 C17.5123426,20.6316684 15.0295417,20.7676669 13.2297362,21.3234658 C15.0640591,19.3682631 17.6286317,18.1193206 20.9234541,17.5766383 C17.1830123,16.1808243 13.6490189,15.5679681 10.321474,15.7380698 C15.4491005,13.3674849 19.4148373,11.9115416 22.2186845,11.3702399 C17.0174669,10.6410257 12.1715713,10.6853805 7.68099762,11.5033045 C11.9405809,8.9420455 15.1039957,7.46000707 17.1712418,7.0571892 C14.6728045,6.26536039 12.4664878,5.82564343 10.5522917,5.73803831 C24.6230274,3.21350584 34.221242,4.38222996 39.3469355,9.24421068 C39.9377351,9.31642105 40.2331349,9.35252623 40.2331349,9.35252623 C37.9017617,5.28513571 32.642762,3.1385686 24.4561359,2.9128249 C23.2942373,2.49728581 22.5430986,2.03161802 22.2027196,1.51582152 C22.1483736,1.43346777 22.1161928,1.40270858 22.1061772,1.42354394 Z" id="Path-2" fill="#FFFFFF"></path>
            <path d="M33.9115739,17.099086 C37.6710345,20.4841663 39.8528263,22.7611014 40.4569494,23.9298912 C40.5735357,21.7665605 39.1350731,19.5269004 36.1415614,17.2109109 C36.9420046,18.4884153 37.2385358,19.111988 37.0311549,19.081629 C36.7200837,19.0360904 36.3330943,18.557811 35.199666,17.8414755 C34.4440471,17.3639185 34.0146831,17.1164553 33.9115739,17.099086 Z" id="Path-3" fill="#FFFFFF"></path>
            <path d="M37.5435867,22.1585763 C40.0264436,23.8898998 40.1031714,26.0503341 37.77377,28.6398791 C37.7255817,27.366537 36.2176858,25.2633694 33.2500822,22.3303764 C31.6214203,20.2391235 30.8991294,17.9506071 31.0832096,15.4648272 C32.9322488,20.0090367 35.3080522,22.9811576 38.2106199,24.3811899 L37.5620337,22.2039839 L37.5435867,22.1585763 Z" id="Path-5" fill="#FFFFFF"></path>
            <path d="M43.9693308,19.7974138 C45.1639716,17.4514393 45.0779217,15.4728059 43.7111813,13.8615135 C44.0758243,14.6996401 44.1429914,15.369464 43.9126826,15.8709853 C39.8698277,13.6264029 35.7155236,13.3908306 31.4497704,15.1642682 C35.4947804,13.0638719 38.3546936,11.391929 40.02951,10.1484394 C42.5678073,9.93170211 45.3179678,10.8287364 48.2799915,12.8395423 C48.8346431,13.2160743 48.6516228,14.618281 48.2799915,15.3888966 C47.9083601,16.1595123 47.3510077,16.7417552 47.0619135,17.0905089 C46.7127238,17.5117599 45.6818629,18.4140615 43.9693308,19.7974138 Z" id="Path-4" fill="#FFFFFF"></path>
            <path d="M35.7497516,7.44258812 C39.0433984,10.1250055 37.2477032,12.003342 30.3626663,13.0775977 C32.1908461,12.3890404 33.2843328,11.8335776 33.6431264,11.4112093 C31.3066169,11.8600669 29.7698364,11.3699805 29.032785,9.94095007 C28.806272,9.44665361 28.1024029,9.08908875 26.9211775,8.8682555 C27.3050155,8.48710764 27.776476,8.39968445 28.3355589,8.60598592 C29.1741833,8.91543812 25.4370186,5.56392776 24.6873536,5.56392262 C26.9710173,5.57709599 29.6506427,6.59225472 32.7262298,8.60939881 C32.723174,8.15628957 32.8151393,7.81199431 33.0021259,7.57651302 C33.4234476,9.32069213 34.3099604,10.2166221 35.6616642,10.264303 C36.2612597,10.2854535 36.5076488,9.80629411 36.5868564,9.43853242 C36.6530929,9.13099552 36.374058,8.46568075 35.7497516,7.44258812 Z" id="Path-6" fill="#FFFFFF"></path>
            <path d="M29.6611554,7.75408671 C28.7538414,10.5322957 30.280159,11.3789748 34.2401082,10.2941241 C33.313031,9.82366006 32.5411698,9.32883249 31.9245244,8.80964136 C31.3078791,8.29045024 30.5534227,7.93859869 29.6611554,7.75408671 Z" id="Path-7" fill-opacity="0.2" fill="#000000"></path>
            <path d="M40.5718667,11.1030289 C43.1647166,11.8284549 42.4479516,12.164172 38.4215714,12.1101803 C38.5509789,11.9269803 38.8721975,11.7613597 39.3852271,11.6133183 C39.8982568,11.4652769 40.2938033,11.2951804 40.5718667,11.1030289 Z" id="Path-8" fill="#000000"></path>
            <path d="M30.8020074,8.13443714 C30.1920633,10.1694249 31.1677804,10.8062029 33.7291587,10.0447713 C33.7584277,10.0360704 33.3166157,9.83449062 32.918099,9.56349153 C32.3292187,9.1630415 31.7411333,8.67529384 31.5610641,8.54925278 C31.3891384,8.42891192 31.1361195,8.29064004 30.8020074,8.13443714 Z" id="Path-9" fill="#000000"></path>
            <path d="M32.4333253,9.218609 C31.8442447,9.57230816 31.6686988,9.95407232 31.9066877,10.3639015 C32.0056788,10.3601759 32.1380694,10.3533979 32.3038597,10.3435674 C32.3651136,10.3399354 32.729323,10.292101 33.0674192,10.2239605 C33.4065133,10.155619 33.7130047,10.0651812 33.7303731,10.0430898 C33.7589371,10.0067584 33.4529906,9.88048024 33.0389826,9.63985806 C32.9129494,9.56660737 32.7110637,9.42619102 32.4333253,9.218609 Z" id="Path-10" fill="#FFFFFF"></path>
        </g>
    </g>
</svg>